<svg xmlns="http://www.w3.org/2000/svg" width="32" height="32" viewBox="0 0 416 448"><path fill="#fff" style="fill-opacity:1;stroke:none;stroke-width:32;stroke-linecap:round;stroke-miterlimit:4;stroke-dasharray:none;stroke-opacity:1" d="M208 636.362a21.855 21.855 0 0 0-15.505 6.442l-33.714 33.714 37.763 37.762A36 36 0 0 1 208 712.362a36 36 0 0 1 36 36 36 36 0 0 1-1.908 11.465l50.453 50.453A36 36 0 0 1 304 808.362a36 36 0 0 1 36 36 36 36 0 0 1-36 36 36 36 0 0 1-36-36 36 36 0 0 1 1.908-11.463L224 786.991v121.17a36 36 0 0 1 20 32.201 36 36 0 0 1-36 36 36 36 0 0 1-36-36 36 36 0 0 1 20-32.232V780.563a36 36 0 0 1-20-32.2 36 36 0 0 1 1.909-11.464l-37.754-37.754L6.44 828.858a21.877 21.877 0 0 0 0 31.008l186.054 186.055a21.877 21.877 0 0 0 31.008 0l186.055-186.055a21.877 21.877 0 0 0 0-31.008L223.503 642.804A21.855 21.855 0 0 0 208 636.362z" transform="translate(0 -604.362)"/></svg>